Coordinates
version=1
nRows=6
nColumns=36
inDegrees=yes

Units are S.I. units (second, meters, Newtons, ...)
If the header above contains a line with 'inDegrees', this indicates whether rotational values are in degrees (yes) or radians (no).

endheader
time	pelvis_tilt	pelvis_list	pelvis_rotation	pelvis_tx	pelvis_ty	pelvis_tz	hip_flexion_r	hip_adduction_r	hip_rotation_r	knee_angle_r	knee_angle_r_beta	ankle_angle_r	subtalar_angle_r	mtp_angle_r	hip_flexion_l	hip_adduction_l	hip_rotation_l	knee_angle_l	knee_angle_l_beta	ankle_angle_l	subtalar_angle_l	mtp_angle_l	lumbar_extension	lumbar_bending	lumbar_rotation	arm_flex_r	arm_add_r	arm_rot_r	elbow_flex_r	pro_sup_r	arm_flex_l	arm_add_l	arm_rot_l	elbow_flex_l	pro_sup_l
      8.15000000	    -10.14912723	     -0.26298652	      5.66017056	      0.74882809	      0.85534370	      0.05558230	     47.63054682	     -8.18005526	     -6.40409800	     31.28650760	      0.54605257	    -19.68142744	     -1.75251111	     -7.49999987	     48.63739085	     -9.15913403	     -5.32105434	     35.79900569	      0.62481052	    -16.83687790	     -7.96179094	     -7.49999987	    -26.50143701	      1.36813368	      8.39954276	    133.15991309	   -174.05524419	     67.77424806	     43.09123779	     58.15360550	    -41.74886247	    -25.59456596	    263.35570914	     23.13444743	     81.33933265
      8.16666670	    -10.61093666	     -0.54705168	      5.00757430	      0.78236654	      0.80958568	      0.05061428	     53.32459880	     -8.19794036	     -5.03465186	     44.62186096	      0.77879839	     -6.06299793	     -5.61629621	     -7.49999987	     53.83763244	    -10.45053538	     -4.80222795	     48.35603245	      0.84397198	     -4.46809872	    -11.67849450	     -7.49999987	    -26.75203576	      1.90100534	      5.19685632	    144.13843250	   -175.64694486	     60.77243996	     51.01385631	     56.63441013	    -39.93580025	    -19.01211560	    265.11382693	     21.58196057	     77.87568785
      8.18333330	    -11.10616200	     -0.76937225	      5.06041636	      0.80209612	      0.76497334	      0.04350354	     59.08117476	     -8.93299784	     -3.99804295	     57.31715345	      1.00037305	      7.57483851	     -6.52394517	     -7.49999987	     59.64357310	    -11.01587836	     -3.98756266	     61.41749642	      1.07193753	      8.10554984	    -13.85755178	     -7.49999987	    -26.23770937	      2.07202154	      5.29119414	    149.75267365	   -177.92175803	     61.92565733	     52.89688313	     42.02412640	    -36.43903077	    -14.26394036	    274.05023461	     22.33013971	     73.04887210
      8.20000000	    -11.17140814	     -0.99566890	      4.82798878	      0.80898663	      0.73471428	      0.04272400	     64.36557327	     -9.32034576	     -2.94151987	     68.60627392	      1.19740537	     18.48166601	     -5.31494884	     -7.49999987	     64.28185454	    -11.60542628	     -2.90409553	     72.15877085	      1.25940814	     17.19174978	    -15.51766457	     -7.49999987	    -26.11178786	      2.01084785	      6.66134101	    154.01498133	   -179.99711233	     69.88754265	     53.07743681	     43.05204652	    -32.04120483	    -10.42056407	    284.18297886	     25.30581825	     72.99093183
      8.21666670	    -10.83518395	     -1.00748272	      4.92375077	      0.81299147	      0.71004694	      0.04740714	     68.72768137	     -9.66177684	     -2.06619044	     77.36679008	      1.35030522	     25.58015854	     -3.84223169	     -7.49999987	     67.92469866	    -11.80177094	     -1.71082401	     80.27487149	      1.40106081	     23.74766236	    -15.58705991	     -7.49999987	    -27.50094944	      2.05062391	      6.42169925	    158.54202736	   -181.80734007	     87.27013543	     53.40852056	     44.48005894	    -25.42570003	     -6.04716596	    290.43276228	     37.42759510	     72.69485514
      8.23333330	     -9.68144679	     -0.85621824	      4.86102382	      0.81793323	      0.68510962	      0.04692092	     71.27308745	     -9.79356593	     -1.29001960	     83.81321956	      1.46281664	     29.70291455	     -2.52998387	     -7.49999987	     69.99908545	    -12.15225962	     -0.98233630	     86.19655444	      1.50441368	     26.35936923	    -16.22855315	     -7.49999987	    -30.42618813	      2.38709483	      4.98521978	    165.09489277	   -179.09968096	    108.81509628	     44.22159302	     46.96795733	    -18.01299185	     -6.01035552	    301.19250986	     39.23041670	     71.43278153
